# xmcd CD database file
#
# Track frame offsets:
#	150
#	12823
#	27555
#	38257
#	53682
#	66735
#	81244
#	97210
#	112795
#	127962
#	141391
#	158397
#	175751
#
# Disc length: 2510 seconds
#
# Revision: 0
# Processed by: cddbd v1.5.2PL0 Copyright (c) Steve Scherf et al.
# Submitted via: ACXtractor (MTCDDB.DLL V2003.07.15)
#
DISCID=a209cc0d
DTITLE=Vic Lanyon - Smellin' the Roses
DYEAR=2008
DGENRE=Rock
TTITLE0=Still Going Strong
TTITLE1=Every Tunnel
TTITLE2=Edna and Robert
TTITLE3=Smellin' the Roses
TTITLE4=You Know that's the Truth
TTITLE5=I lost the Prize
TTITLE6=Love is the Answer
TTITLE7=Growing old Together
TTITLE8=Overnight Sensation
TTITLE9=Ordinary Life
TTITLE10=Going through the Motions
TTITLE11=Right on my Mind
TTITLE12=Coming Home
EXTD=ID3G:  17 YEAR: 2008
EXTT0=
EXTT1=
EXTT2=
EXTT3=
EXTT4=
EXTT5=
EXTT6=
EXTT7=
EXTT8=
EXTT9=
EXTT10=
EXTT11=
EXTT12=
PLAYORDER=
